<svg width="39" height="38" viewBox="0 0 39 38" fill="none" xmlns="http://www.w3.org/2000/svg">
<g clip-path="url(#clip0_1_391)">
<path d="M19.6842 34.8332C28.4287 34.8332 35.5175 27.7443 35.5175 18.9998C35.5175 10.2553 28.4287 3.1665 19.6842 3.1665C10.9397 3.1665 3.85086 10.2553 3.85086 18.9998C3.85086 27.7443 10.9397 34.8332 19.6842 34.8332Z" fill="#1DA1F2"/>
<path fill-rule="evenodd" clip-rule="evenodd" d="M29.1842 12.9111C28.4857 13.2215 27.7339 13.4305 26.9455 13.5248C27.7504 13.0422 28.3685 12.2785 28.6592 11.3685C27.9069 11.8155 27.0716 12.1392 26.1843 12.3146C25.4731 11.5572 24.4592 11.0835 23.3389 11.0835C21.1864 11.0835 19.441 12.8289 19.441 14.9814C19.441 15.2866 19.4758 15.5843 19.5423 15.8699C16.3024 15.7078 13.4304 14.1556 11.5078 11.7972C11.1721 12.3729 10.9802 13.0422 10.9802 13.7566C10.9802 15.1087 11.6674 16.3018 12.7142 17.001C12.0745 16.9807 11.4742 16.8053 10.9479 16.5133V16.5621C10.9479 18.4512 12.2924 20.0262 14.0745 20.3853C13.7477 20.4739 13.4032 20.5221 13.048 20.5221C12.7965 20.5221 12.5521 20.4974 12.3139 20.4518C12.8098 22.0002 14.25 23.1274 15.9554 23.1591C14.6217 24.204 12.9409 24.8278 11.1145 24.8278C10.7991 24.8278 10.4888 24.8094 10.1842 24.7727C11.9093 25.8785 13.958 26.5244 16.1593 26.5244C23.3288 26.5244 27.2495 20.5848 27.2495 15.4342C27.2495 15.2651 27.2464 15.0967 27.2381 14.9301C28.0006 14.3791 28.6617 13.6927 29.1842 12.9111Z" fill="white"/>
</g>
<defs>
<clipPath id="clip0_1_391">
<rect width="38" height="38" fill="white" transform="translate(0.684204)"/>
</clipPath>
</defs>
</svg>
