<svg width="39" height="38" viewBox="0 0 39 38" fill="none" xmlns="http://www.w3.org/2000/svg">
<g clip-path="url(#clip0_1_387)">
<path d="M19.6842 35C28.5208 35 35.6842 27.8366 35.6842 19C35.6842 10.1634 28.5208 3 19.6842 3C10.8476 3 3.6842 10.1634 3.6842 19C3.6842 27.8366 10.8476 35 19.6842 35Z" fill="#65A2D9"/>
<path d="M28.1036 20.3968C27.813 19.9951 27.6785 19.5046 27.6789 19.0089C27.6789 19.006 27.6789 19.0031 27.6789 19.0002C27.6789 14.5847 24.0995 11.0054 19.6843 11.0054C18.7181 11.0054 17.7926 11.1773 16.9356 11.4914C16.4721 11.6614 15.9641 11.694 15.4888 11.5602C15.069 11.442 14.6203 11.392 14.1556 11.4241C12.2038 11.5585 10.6325 13.1581 10.5313 15.112C10.4831 16.0446 10.7626 16.9097 11.2648 17.6035C11.5551 18.0052 11.69 18.4957 11.6895 18.9917V19.0004C11.6895 23.4157 15.2686 26.9951 19.6841 26.9951C20.6503 26.9951 21.5758 26.8233 22.4328 26.509C22.8963 26.339 23.4043 26.3064 23.8796 26.4402C24.2994 26.5587 24.7481 26.6084 25.2128 26.5766C27.1646 26.4423 28.7359 24.8426 28.8371 22.8888C28.8853 21.9559 28.6058 21.0907 28.1036 20.3968ZM19.977 17.5667C21.5889 17.9501 24.0248 18.5295 24.0248 21.2127C24.0248 22.5344 23.3738 23.5429 22.1918 24.052C21.3484 24.4152 20.3937 24.4642 19.571 24.4642C17.0428 24.4642 15.4464 22.4986 15.3794 22.4149C14.9653 21.8957 15.0506 21.139 15.5699 20.7249C16.0892 20.3109 16.8459 20.3961 17.2598 20.9154C17.2634 20.9197 18.2183 22.0166 19.5708 22.0594C21.1994 22.1109 21.5715 21.6264 21.6197 21.2128C21.6785 20.7076 21.2291 20.3369 19.4202 19.9065C17.8868 19.542 15.5695 18.9908 15.5695 16.5197C15.5695 15.7501 15.8825 13.2392 19.91 13.2392C22.4532 13.2392 23.9545 15.2414 24.0172 15.3266C24.4105 15.8618 24.2956 16.6144 23.7605 17.0077C23.2278 17.3994 22.4798 17.2874 22.085 16.7587C22.0566 16.7224 21.1973 15.7663 19.91 15.6441C18.9361 15.5516 17.9745 15.9029 17.9745 16.4217C17.9748 16.9713 18.2509 17.1562 19.977 17.5667Z" fill="white"/>
<path d="M21.62 21.2128C21.6737 20.7517 21.3035 20.4026 19.8638 20.0181V22.0628C21.2451 22.0501 21.5748 21.6003 21.62 21.2128Z" fill="white"/>
<path d="M17.9748 16.4218C17.9748 16.9591 18.2395 17.148 19.8638 17.5397V15.6411C18.9061 15.5638 17.9748 15.9112 17.9748 16.4218Z" fill="white"/>
</g>
<defs>
<clipPath id="clip0_1_387">
<rect width="32" height="32" fill="white" transform="translate(3.6842 3)"/>
</clipPath>
</defs>
</svg>
