<svg width="61" height="38" viewBox="0 0 61 38" fill="none" xmlns="http://www.w3.org/2000/svg">
<g clip-path="url(#clip0_1_400)">
<rect x="0.30249" width="60.6383" height="38" rx="4" fill="white"/>
<path d="M37.3546 19.7559L37.7595 19.8774C37.7325 19.9921 37.692 20.0866 37.6313 20.1609C37.5706 20.2351 37.5031 20.2958 37.4153 20.3296C37.3276 20.3701 37.2196 20.3903 37.0847 20.3903C36.9227 20.3903 36.7945 20.3701 36.6865 20.3228C36.5853 20.2756 36.4976 20.1946 36.4233 20.0731C36.3491 19.9584 36.3086 19.8032 36.3086 19.621C36.3086 19.378 36.3761 19.1891 36.5043 19.0541C36.6325 18.9191 36.8215 18.8584 37.0577 18.8584C37.2466 18.8584 37.3883 18.8989 37.4963 18.9731C37.6043 19.0474 37.6853 19.1621 37.7325 19.324L37.3276 19.4118C37.3141 19.3645 37.3006 19.3308 37.2804 19.3105C37.2534 19.2768 37.2264 19.2498 37.1859 19.2296C37.1454 19.2093 37.1049 19.2026 37.0644 19.2026C36.9632 19.2026 36.8822 19.2431 36.8282 19.3308C36.7877 19.3915 36.7675 19.4928 36.7675 19.621C36.7675 19.7829 36.7945 19.8977 36.8417 19.9584C36.889 20.0191 36.9632 20.0529 37.0509 20.0529C37.1387 20.0529 37.2061 20.0259 37.2466 19.9786C37.3006 19.9179 37.3344 19.8504 37.3546 19.7559Z" fill="#225E63"/>
<path d="M37.9215 19.6209C37.9215 19.3779 37.989 19.189 38.124 19.054C38.2589 18.919 38.4479 18.8516 38.6908 18.8516C38.9405 18.8516 39.1295 18.919 39.2645 19.0473C39.3994 19.1822 39.4669 19.3644 39.4669 19.6074C39.4669 19.7829 39.4399 19.9246 39.3792 20.0325C39.3184 20.1405 39.2375 20.2283 39.1227 20.289C39.0148 20.3497 38.873 20.3835 38.7111 20.3835C38.5424 20.3835 38.4074 20.3565 38.2927 20.3025C38.1847 20.2485 38.097 20.1675 38.0227 20.046C37.9485 19.9246 37.9215 19.7963 37.9215 19.6209ZM38.3804 19.6209C38.3804 19.7694 38.4074 19.8773 38.4614 19.9448C38.5154 20.0123 38.5896 20.046 38.6908 20.046C38.7921 20.046 38.8663 20.0123 38.9203 19.9516C38.9743 19.8841 39.0013 19.7694 39.0013 19.6074C39.0013 19.4657 38.9743 19.3644 38.9135 19.3037C38.8595 19.2362 38.7786 19.2092 38.6841 19.2092C38.5896 19.2092 38.5154 19.243 38.4614 19.3105C38.4074 19.3644 38.3804 19.4724 38.3804 19.6209Z" fill="#225E63"/>
<path d="M39.7031 18.8784H40.3037L40.5331 19.7827L40.7626 18.8784H41.3632V20.3631H40.9853V19.2293L40.6951 20.3631H40.3577L40.0675 19.2293V20.3631H39.6896V18.8784H39.7031Z" fill="#225E63"/>
<path d="M41.6602 18.8784H42.4227C42.5914 18.8784 42.7129 18.9189 42.7939 18.9999C42.8749 19.0809 42.9154 19.1888 42.9154 19.3373C42.9154 19.4858 42.8681 19.6073 42.7804 19.6882C42.6927 19.776 42.551 19.8165 42.3687 19.8165H42.1191V20.3698H41.6602V18.8784ZM42.1191 19.5128H42.2338C42.3215 19.5128 42.3822 19.4993 42.4227 19.4655C42.4565 19.4318 42.4767 19.398 42.4767 19.3508C42.4767 19.3036 42.4632 19.2631 42.4295 19.2293C42.3957 19.1956 42.3418 19.1821 42.254 19.1821H42.1258V19.5128H42.1191Z" fill="#225E63"/>
<path d="M43.1583 18.8784H43.6172V19.9987H44.3326V20.3631H43.1583V18.8784Z" fill="#225E63"/>
<path d="M44.562 18.8784H45.0209V20.3631H44.562V18.8784Z" fill="#225E63"/>
<path d="M46.2626 20.1133H45.743L45.6688 20.3562H45.2031L45.7632 18.8716H46.2626L46.8228 20.3562H46.3436L46.2626 20.1133ZM46.1682 19.7961L46.0062 19.263L45.8442 19.7961H46.1682Z" fill="#225E63"/>
<path d="M46.9645 18.8784H47.3896L47.9498 19.7017V18.8784H48.3817V20.3631H47.9498L47.3964 19.5465V20.3631H46.9645V18.8784Z" fill="#225E63"/>
<path d="M48.5841 18.8784H49.981V19.2428H49.5154V20.3631H49.0565V19.2428H48.5909V18.8784H48.5841Z" fill="#225E63"/>
<path d="M31.8344 21.1395L33.1638 20.7211L32.7319 19.7628C32.4148 20.161 32.0976 20.6738 31.8344 21.1395ZM31.3823 16.7597L28.7773 10.9561L9.70618 12.0358L14.9902 26.4505L25.1602 23.245C24.5123 22.3137 24.2761 21.207 25.0252 20.6671C25.862 20.0597 27.124 20.7616 27.927 21.7536C28.7031 20.4579 30.8829 17.4413 31.3823 16.7597Z" fill="#225E63"/>
<path d="M28.1832 15.1502C28.9795 15.1502 29.6274 14.5428 29.6274 13.787C29.6274 13.0312 28.9795 12.4238 28.1832 12.4238C27.3869 12.4238 26.739 13.0312 26.739 13.787C26.739 14.5361 27.3869 15.1502 28.1832 15.1502ZM27.0022 15.7373H29.3642V21.9122H27.0022V15.7373Z" fill="#FEFEFE"/>
<path d="M25.8347 17.5393C25.8549 17.546 25.8684 17.5393 25.8684 17.519V15.9534C25.8684 15.9331 25.8549 15.9129 25.8347 15.8994C25.8347 15.8994 25.5243 15.697 24.5795 15.643C24.5322 15.616 23.7022 15.6092 23.4795 15.643C20.0378 15.9197 19.9095 18.4098 19.9095 18.5178V19.1252C19.9095 19.1994 19.9095 21.7436 23.4795 21.9663C23.8304 21.9933 24.512 21.9663 24.5795 21.9663C25.4028 21.9663 25.9697 21.7166 25.9697 21.7166C25.9899 21.7098 26.0034 21.6896 26.0034 21.6693V20.2049C26.0034 20.1847 25.9899 20.1779 25.9764 20.1914C25.9764 20.1914 25.72 20.3939 24.5997 20.5086C24.2826 20.5424 24.1273 20.5289 24.0126 20.5086C22.42 20.2387 22.3457 19.0779 22.3457 19.0779C22.3457 19.0577 22.339 19.0239 22.339 19.0104V18.5651C22.339 18.5448 22.339 18.5111 22.3457 18.4976C22.3457 18.4976 22.4537 17.2491 24.0126 17.1141H24.5997C25.2813 17.2019 25.8347 17.5393 25.8347 17.5393Z" fill="#FEFEFE"/>
<path d="M13.35 21.8921C13.35 21.9123 13.3635 21.9258 13.3838 21.9258H15.685C15.7053 21.9258 15.7187 21.9123 15.7187 21.8921V20.097C15.7187 20.0768 15.7322 20.0633 15.7525 20.0633C15.7525 20.0633 19.4304 20.3265 19.4304 17.8633C19.4304 15.913 17.1224 15.7038 16.3666 15.7375C16.3531 15.7375 13.3838 15.7375 13.3838 15.7375C13.3635 15.7375 13.35 15.751 13.35 15.7712V21.8921ZM15.6783 18.6933V17.0804H16.2451C16.2451 17.0804 17.0617 17.1142 17.1292 17.6743C17.1427 17.7148 17.1427 17.9915 17.1292 18.005C17.0212 18.6596 16.3126 18.6933 16.3126 18.6933H15.6783Z" fill="#FEFEFE"/>
<path d="M28.251 24.8914C28.4399 24.8914 28.5884 24.8914 28.8314 24.7835C29.6682 24.3448 32.4958 17.4411 35.4786 15.3154C35.4988 15.3019 35.5191 15.2816 35.5326 15.2614C35.5528 15.2344 35.5528 15.2074 35.5528 15.2074C35.5528 15.2074 35.5528 15.0657 35.1142 15.0657C32.462 14.9914 29.7019 20.5589 28.251 22.7589C28.2307 22.7859 28.1363 22.7589 28.1363 22.7589C28.1363 22.7589 27.1645 21.6117 26.3209 21.173C26.3007 21.1663 26.2062 21.1325 26.105 21.1393C26.0375 21.1393 25.6461 21.2203 25.4639 21.4092C25.2479 21.6387 25.2547 21.7669 25.2547 22.0436C25.2547 22.0638 25.2682 22.1583 25.2952 22.2056C25.5044 22.57 26.4424 23.8657 27.2185 24.581C27.3332 24.6687 27.5154 24.8914 28.251 24.8914Z" fill="#2BBC5D"/>
<path d="M36.2614 13.2305H38.4681C38.9068 13.2305 39.2577 13.2912 39.5209 13.4059C39.7908 13.5274 40.0135 13.6961 40.1822 13.9121C40.3577 14.1348 40.4859 14.3912 40.5601 14.6814C40.6411 14.9716 40.6816 15.282 40.6816 15.6127C40.6816 16.1256 40.6209 16.5237 40.5061 16.8072C40.3914 17.0906 40.2295 17.3268 40.0202 17.5225C39.811 17.7115 39.5883 17.8397 39.3522 17.9072C39.0282 17.9949 38.7313 18.0354 38.4681 18.0354H36.2614V13.2305ZM37.746 14.317V16.9421H38.1104C38.4209 16.9421 38.6436 16.9084 38.7718 16.8409C38.9 16.7734 39.008 16.6519 39.0822 16.4832C39.1564 16.3145 39.1969 16.0311 39.1969 15.6464C39.1969 15.1335 39.116 14.7894 38.9472 14.6004C38.7785 14.4114 38.5086 14.317 38.1172 14.317H37.746Z" fill="#225E63"/>
<path d="M41.0933 16.4493L42.5104 16.3616C42.5442 16.591 42.6049 16.7665 42.6994 16.888C42.8546 17.0837 43.0706 17.1782 43.354 17.1782C43.5632 17.1782 43.7319 17.1309 43.8466 17.0297C43.9614 16.9285 44.0221 16.8137 44.0221 16.6855C44.0221 16.5641 43.9681 16.4493 43.8601 16.3481C43.7522 16.2469 43.4957 16.1591 43.0976 16.0714C42.443 15.9229 41.9841 15.7272 41.7006 15.4843C41.4172 15.2414 41.2822 14.9309 41.2822 14.553C41.2822 14.3033 41.3565 14.0739 41.4982 13.8512C41.6399 13.6285 41.8558 13.4598 42.146 13.3315C42.4362 13.2033 42.8276 13.1426 43.327 13.1426C43.9411 13.1426 44.4135 13.2573 44.7307 13.4868C45.0546 13.7162 45.2436 14.0806 45.3043 14.58L43.9006 14.661C43.8601 14.445 43.7859 14.2898 43.6644 14.1886C43.543 14.0874 43.381 14.0401 43.1718 14.0401C42.9963 14.0401 42.8681 14.0739 42.7804 14.1481C42.6926 14.2223 42.6522 14.3101 42.6522 14.418C42.6522 14.4923 42.6859 14.5665 42.7601 14.6272C42.8276 14.688 42.9963 14.7487 43.2595 14.8027C43.9074 14.9444 44.373 15.0861 44.6565 15.2279C44.9399 15.3696 45.1423 15.5518 45.2706 15.761C45.3988 15.9702 45.4595 16.2131 45.4595 16.4763C45.4595 16.7868 45.3718 17.0702 45.2031 17.3266C45.0344 17.5898 44.7914 17.7855 44.4877 17.9205C44.1841 18.0555 43.7926 18.1229 43.327 18.1229C42.5104 18.1229 41.9436 17.9677 41.6264 17.6506C41.316 17.3334 41.1405 16.9352 41.0933 16.4493Z" fill="#225E63"/>
<path d="M45.8375 16.4493L47.2547 16.3616C47.2884 16.591 47.3492 16.7665 47.4437 16.888C47.5989 17.0837 47.8148 17.1782 48.0983 17.1782C48.3075 17.1782 48.4762 17.1309 48.5909 17.0297C48.7056 16.9285 48.7664 16.8137 48.7664 16.6855C48.7664 16.5641 48.7124 16.4493 48.6044 16.3481C48.4964 16.2469 48.24 16.1591 47.8418 16.0714C47.1872 15.9229 46.7283 15.7272 46.4449 15.4843C46.1682 15.2414 46.0265 14.9309 46.0265 14.553C46.0265 14.3033 46.1007 14.0739 46.2424 13.8512C46.3842 13.6285 46.6001 13.4598 46.8903 13.3315C47.1805 13.2033 47.5719 13.1426 48.0713 13.1426C48.6854 13.1426 49.1578 13.2573 49.4749 13.4868C49.7989 13.7162 49.9878 14.0806 50.0486 14.58L48.6449 14.661C48.6044 14.445 48.5302 14.2898 48.4087 14.1886C48.2872 14.0874 48.1253 14.0401 47.9161 14.0401C47.7406 14.0401 47.6124 14.0739 47.5246 14.1481C47.4369 14.2223 47.3964 14.3101 47.3964 14.418C47.3964 14.4923 47.4302 14.5665 47.5044 14.6272C47.5719 14.688 47.7406 14.7487 48.0038 14.8027C48.6516 14.9444 49.1173 15.0861 49.4007 15.2279C49.6841 15.3696 49.8866 15.5518 50.0148 15.761C50.143 15.9702 50.2038 16.2131 50.2038 16.4763C50.2038 16.7868 50.116 17.0702 49.9473 17.3266C49.7786 17.5898 49.5357 17.7855 49.232 17.9205C48.9283 18.0555 48.5369 18.1229 48.0713 18.1229C47.2547 18.1229 46.6878 17.9677 46.3707 17.6506C46.0535 17.3334 45.878 16.9352 45.8375 16.4493Z" fill="#225E63"/>
</g>
<defs>
<clipPath id="clip0_1_400">
<rect x="0.30249" width="60.6383" height="38" rx="4" fill="white"/>
</clipPath>
</defs>
</svg>
