<svg width="39" height="38" viewBox="0 0 39 38" fill="none" xmlns="http://www.w3.org/2000/svg">
<g clip-path="url(#clip0_1_390)">
<path d="M19.6842 34.8332C28.4287 34.8332 35.5175 27.7443 35.5175 18.9998C35.5175 10.2553 28.4287 3.1665 19.6842 3.1665C10.9397 3.1665 3.85086 10.2553 3.85086 18.9998C3.85086 27.7443 10.9397 34.8332 19.6842 34.8332Z" fill="#C13584"/>
<path d="M19.6842 11.2117C22.2208 11.2117 22.5213 11.2214 23.523 11.2671C24.4492 11.3094 24.9523 11.4641 25.2871 11.5942C25.7305 11.7665 26.0469 11.9724 26.3793 12.3048C26.7118 12.6373 26.9177 12.9537 27.09 13.3971C27.2201 13.7319 27.3748 14.235 27.4171 15.1611C27.4628 16.1629 27.4725 16.4633 27.4725 18.9999C27.4725 21.5366 27.4628 21.837 27.4171 22.8388C27.3748 23.765 27.2201 24.268 27.09 24.6028C26.9177 25.0462 26.7118 25.3627 26.3794 25.6951C26.0469 26.0275 25.7305 26.2334 25.2871 26.4057C24.9523 26.5359 24.4492 26.6906 23.523 26.7328C22.5215 26.7785 22.221 26.7883 19.6842 26.7883C17.1474 26.7883 16.847 26.7785 15.8454 26.7328C14.9192 26.6906 14.4161 26.5359 14.0813 26.4057C13.6379 26.2334 13.3215 26.0275 12.9891 25.6951C12.6567 25.3627 12.4507 25.0462 12.2784 24.6028C12.1483 24.268 11.9936 23.765 11.9513 22.8388C11.9056 21.837 11.8959 21.5366 11.8959 18.9999C11.8959 16.4633 11.9056 16.1629 11.9513 15.1611C11.9936 14.235 12.1483 13.7319 12.2784 13.3971C12.4507 12.9537 12.6566 12.6373 12.9891 12.3049C13.3215 11.9724 13.6379 11.7665 14.0813 11.5942C14.4161 11.4641 14.9192 11.3094 15.8454 11.2671C16.8471 11.2214 17.1476 11.2117 19.6842 11.2117ZM19.6842 9.5C17.1042 9.5 16.7806 9.51092 15.7674 9.55716C14.7562 9.60331 14.0656 9.76386 13.4613 9.99875C12.8366 10.2415 12.3068 10.5663 11.7787 11.0945C11.2505 11.6226 10.9257 12.1524 10.683 12.7771C10.4481 13.3814 10.2875 14.072 10.2414 15.0832C10.1951 16.0964 10.1842 16.42 10.1842 18.9999C10.1842 21.58 10.1951 21.9035 10.2414 22.9168C10.2875 23.928 10.4481 24.6185 10.683 25.2228C10.9257 25.8475 11.2505 26.3773 11.7787 26.9055C12.3068 27.4336 12.8366 27.7584 13.4613 28.0012C14.0656 28.2361 14.7562 28.3966 15.7674 28.4428C16.7806 28.489 17.1042 28.4999 19.6842 28.4999C22.2642 28.4999 22.5878 28.489 23.6011 28.4428C24.6122 28.3966 25.3028 28.2361 25.9071 28.0012C26.5318 27.7584 27.0616 27.4336 27.5897 26.9055C28.1178 26.3773 28.4427 25.8475 28.6855 25.2228C28.9203 24.6185 29.0809 23.928 29.127 22.9168C29.1733 21.9035 29.1842 21.58 29.1842 18.9999C29.1842 16.42 29.1733 16.0964 29.127 15.0832C29.0809 14.072 28.9203 13.3814 28.6855 12.7771C28.4427 12.1524 28.1178 11.6226 27.5897 11.0945C27.0616 10.5663 26.5318 10.2415 25.9071 9.99875C25.3028 9.76386 24.6122 9.60331 23.6011 9.55716C22.5878 9.51092 22.2642 9.5 19.6842 9.5Z" fill="white"/>
<path d="M19.6889 14.126C16.9946 14.126 14.8105 16.31 14.8105 19.0043C14.8105 21.6986 16.9946 23.8826 19.6889 23.8826C22.3832 23.8826 24.5673 21.6986 24.5673 19.0043C24.5673 16.31 22.3832 14.126 19.6889 14.126ZM19.6889 22.171C17.94 22.171 16.5222 20.7532 16.5222 19.0043C16.5222 17.2554 17.94 15.8376 19.6889 15.8376C21.4378 15.8376 22.8555 17.2554 22.8555 19.0043C22.8555 20.7532 21.4378 22.171 19.6889 22.171Z" fill="white"/>
<path d="M25.8994 13.9306C25.8994 14.5601 25.389 15.0706 24.7594 15.0706C24.1297 15.0706 23.6194 14.5601 23.6194 13.9306C23.6194 13.301 24.1297 12.7905 24.7594 12.7905C25.389 12.7905 25.8994 13.301 25.8994 13.9306Z" fill="white"/>
</g>
<defs>
<clipPath id="clip0_1_390">
<rect width="38" height="38" fill="white" transform="translate(0.684204)"/>
</clipPath>
</defs>
</svg>
