<svg width="39" height="38" viewBox="0 0 39 38" fill="none" xmlns="http://www.w3.org/2000/svg">
<g clip-path="url(#clip0_1_388)">
<path fill-rule="evenodd" clip-rule="evenodd" d="M23.8919 13.4248C23.3985 13.326 22.732 13.2523 22.3129 13.2523C21.1778 13.2523 21.1041 13.7458 21.1041 14.5354V15.9409H23.9413L23.694 18.8523H21.1041V27.7082H17.5517V18.8523H15.7259V15.9409H17.5517V14.14C17.5517 11.6732 18.7111 10.2915 21.622 10.2915C22.6333 10.2915 23.3735 10.4395 24.3355 10.6369L23.8919 13.4248Z" fill="white"/>
<path d="M35.4342 19C35.4342 10.3015 28.3827 3.25 19.6842 3.25C10.9857 3.25 3.9342 10.3015 3.9342 19C3.9342 27.6985 10.9857 34.75 19.6842 34.75C28.3827 34.75 35.4342 27.6985 35.4342 19Z" fill="#1275B1"/>
<path d="M15.8801 11.9037C15.8801 12.955 14.9688 13.8073 13.8447 13.8073C12.7205 13.8073 11.8092 12.955 11.8092 11.9037C11.8092 10.8523 12.7205 10 13.8447 10C14.9688 10 15.8801 10.8523 15.8801 11.9037Z" fill="white"/>
<path d="M12.0876 15.2065H15.5669V25.7499H12.0876V15.2065Z" fill="white"/>
<path d="M21.1688 15.2066H17.6894V25.75H21.1688C21.1688 25.75 21.1688 22.4308 21.1688 20.3555C21.1688 19.1098 21.5941 17.8587 23.2912 17.8587C25.2091 17.8587 25.1976 19.4888 25.1886 20.7517C25.1769 22.4025 25.2048 24.0871 25.2048 25.75H28.6842V20.1854C28.6547 16.6323 27.7289 14.9951 24.6829 14.9951C22.874 14.9951 21.7527 15.8164 21.1688 16.5593V15.2066Z" fill="white"/>
</g>
<defs>
<clipPath id="clip0_1_388">
<rect width="38" height="38" fill="white" transform="translate(0.684204)"/>
</clipPath>
</defs>
</svg>
