<svg width="39" height="38" viewBox="0 0 39 38" fill="none" xmlns="http://www.w3.org/2000/svg">
<g clip-path="url(#clip0_1_389)">
<path d="M19.6842 34.8332C28.4287 34.8332 35.5175 27.7443 35.5175 18.9998C35.5175 10.2553 28.4287 3.1665 19.6842 3.1665C10.9397 3.1665 3.85086 10.2553 3.85086 18.9998C3.85086 27.7443 10.9397 34.8332 19.6842 34.8332Z" fill="#3B5998"/>
<path fill-rule="evenodd" clip-rule="evenodd" d="M23.8919 13.4248C23.3985 13.326 22.732 13.2523 22.3128 13.2523C21.1778 13.2523 21.1041 13.7458 21.1041 14.5354V15.9409H23.9413L23.694 18.8523H21.1041V27.7082H17.5517V18.8523H15.7259V15.9409H17.5517V14.14C17.5517 11.6732 18.7111 10.2915 21.622 10.2915C22.6333 10.2915 23.3735 10.4395 24.3355 10.6369L23.8919 13.4248Z" fill="white"/>
</g>
<defs>
<clipPath id="clip0_1_389">
<rect width="38" height="38" fill="white" transform="translate(0.684204)"/>
</clipPath>
</defs>
</svg>
